# xmcd
# 
# Track frame offsets:
#     183
#     44435
#     95398
#     123685
#     143388
#     164283
#     198783
# 
# Disc length: 2924
# 
# Revision: 8
# Processed by: cddbd v1.5.2PL0 Copyright (c) Steve Scherf et al.
# Submitted via: fre:ac v1.0.31
# 
DISCID=560b6a07
DTITLE=Michel_JONASZ - La_Fabuleuse_Histoire_De_Mister_Swing_CD2
DYEAR=1988
DGENRE=Jazz
TTITLE0=Ne garde rien
TTITLE1=Le temps passe
TTITLE2=Une priere
TTITLE3=Si si si le ciel
TTITLE4=A chaque saison qui passe
TTITLE5=La fabuleuse histoire de Mister Swing
TTITLE6=Om les hommes
EXTD=YEAR: 1988
EXTT0=
EXTT1=
EXTT2=
EXTT3=
EXTT4=
EXTT5=
EXTT6=
PLAYORDER=
